<svg version="1.1" xmlns="http://www.w3.org/2000/svg" width="557" height="142" viewBox="0 0 557 142" preserveAspectRatio="xMidYMax meet"> 
  <path d="M 14 0 H 42 V 7 H 49 V 14 H 56 V 98 H 49 V 105 H 42 V 112 H 14 V 105 H 7 V 98 H 0 V 14 H 7 V 7 H 14 V 0 Z M 21 14 V 98 H 35 V 14 Z" fill="#0A0F1D" transform="translate(15,15)"/> 
  <path d="M 14 0 H 42 V 7 H 49 V 14 H 56 V 56 H 28 V 91 H 56 V 98 H 49 V 105 H 42 V 112 H 14 V 105 H 7 V 98 H 0 V 56 H 28 V 21 H 0 V 14 H 7 V 7 H 14 V 0 Z" fill="#0A0F1D" transform="translate(90,15)"/> 
  <path d="M 14 0 H 42 V 7 H 49 V 14 H 56 V 28 H 42 V 105 H 35 V 112 H 21 V 105 H 14 V 28 H 0 V 14 H 7 V 7 H 14 V 0 Z" fill="#0A0F1D" transform="translate(165,15)"/> 
  <path d="M 14 0 H 42 V 7 H 49 V 14 H 56 V 28 H 42 V 105 H 35 V 112 H 21 V 105 H 14 V 28 H 0 V 14 H 7 V 7 H 14 V 0 Z" fill="#0A0F1D" transform="translate(240,15)"/> 
  <path d="M 14 0 H 21 V 84 H 35 V 0 H 42 V 7 H 49 V 14 H 56 V 98 H 49 V 105 H 42 V 112 H 14 V 105 H 7 V 98 H 0 V 14 H 7 V 7 H 14 V 0 Z" fill="#0A0F1D" transform="translate(315,15)"/> 
  <path d="M 0 0 H 42 V 7 H 49 V 14 H 56 V 42 H 49 V 49 H 42 V 63 H 56 V 98 H 49 V 105 H 42 V 112 H 35 V 63 H 21 V 112 H 0 V 0 Z M 21 21 V 42 H 35 V 21 Z" fill="#0A0F1D" transform="translate(390,15)"/> 
  <path d="M 0 0 H 21 V 21 H 35 V 0 H 42 V 7 H 49 V 14 H 56 V 42 H 28 V 70 H 56 V 98 H 49 V 105 H 42 V 112 H 35 V 91 H 21 V 112 H 0 V 0 Z" fill="#0A0F1D" transform="translate(465,15)"/> 
</svg>
